# xmcd
#
# Track frame offsets: 
#        183
#        15198
#        29705
#        45428
#
# Disc length: 805 seconds
#
# Revision: 2
# Processed by: cddbd v1.5.2PL0 Copyright (c) Steve Scherf et al.
# Submitted via: ExactAudioCopyFreeDBPlugin 1.0
#
DISCID=23032304
DTITLE=I N X S   (in excess) -  - H E A V E N   S E N T     1 9 9 2
DYEAR=1992
DGENRE=Rock
TTITLE0=Heaven Sent  1992
TTITLE1=It Ain't Easy  1992
TTITLE2=11th Revolution  1992
TTITLE3=Deepest Red  1992
EXTD=
EXTT0=
EXTT1=
EXTT2=
EXTT3=
PLAYORDER=
